<svg id="Group_635" data-name="Group 635" xmlns="http://www.w3.org/2000/svg" width="90.796" height="77.273" viewBox="0 0 90.796 77.273">
  <path id="Path_63" data-name="Path 63" d="M193.912,321.446c0-4.294-3.594-4.294-5.525-4.294s-5.527,0-5.527,4.294,3.6,4.293,5.527,4.293S193.912,325.739,193.912,321.446Z" transform="translate(-142.988 -268.036)" fill="#1f1f1f"/>
  <path id="Path_64" data-name="Path 64" d="M161.05,322.965a4.463,4.463,0,1,0-4.463-4.462A4.467,4.467,0,0,0,161.05,322.965Z" transform="translate(-131.622 -266.689)" fill="#1f1f1f"/>
  <path id="Path_65" data-name="Path 65" d="M221.807,318.5a4.463,4.463,0,1,0-4.463,4.462A4.468,4.468,0,0,0,221.807,318.5Z" transform="translate(-155.977 -266.689)" fill="#1f1f1f"/>
  <path id="Path_66" data-name="Path 66" d="M196.954,337.688A2.62,2.62,0,0,0,193.491,339c-.09.192-2.294,4.686-9.088,4.686-5.423,0-8.409-4.743-8.532-4.942a1.225,1.225,0,0,0-.088-.12c-.032-.047-.066-.091-.1-.136a2.567,2.567,0,0,0-.248-.279l-.082-.073a2.518,2.518,0,0,0-.335-.253l-.081-.048a2.537,2.537,0,0,0-.39-.187l-.1-.035a2.617,2.617,0,0,0-.394-.1l-.1-.016a2.787,2.787,0,0,0-.368-.02l-.131,0a2.6,2.6,0,0,0-.4.058l-.1.024a2.668,2.668,0,0,0-.365.127l-.191.09a1.031,1.031,0,0,0-.125.061,1.239,1.239,0,0,0-.118.087c-.049.033-.1.069-.15.112a2.632,2.632,0,0,0-.244.216c-.043.041-.081.087-.133.147a2.72,2.72,0,0,0-.19.25l.152.1-.209-.024c-.125.2-3.12,4.955-8.542,4.955-6.772,0-9-4.492-9.085-4.681a2.637,2.637,0,0,0-2.393-1.538,2.629,2.629,0,0,0-2.4,3.7c.141.318,3.583,7.778,13.878,7.778a15.125,15.125,0,0,0,10.787-4.712,15.124,15.124,0,0,0,10.786,4.712c10.3,0,13.737-7.46,13.878-7.778a2.631,2.631,0,0,0,.055-2.016A2.6,2.6,0,0,0,196.954,337.688Z" transform="translate(-128.22 -276.822)" fill="#1f1f1f"/>
  <path id="Path_67" data-name="Path 67" d="M196.62,233.075a16.073,16.073,0,0,0-8.872-2.491c-4.5,0-9.561,1.549-15.051,4.6-8.173,4.547-12.5,10.113-14.714,14.084-2.214-3.97-6.541-9.537-14.714-14.084-5.491-3.055-10.555-4.6-15.051-4.6a16.069,16.069,0,0,0-8.872,2.492,14.63,14.63,0,0,0-6.722,13.059c1.127,13.523,16.381,20.5,45.338,20.726,14.059.112,24.277,6.5,30.374,18.992a54.591,54.591,0,0,1,5.109,19.47,2.618,2.618,0,0,0,2.625,2.533l.1,0a2.627,2.627,0,0,0,2.532-2.72,59.125,59.125,0,0,0-5.566-21.44c-4.834-9.988-14.852-21.929-35.127-22.09-17.72-.142-39.068-3.016-40.142-15.908a9.508,9.508,0,0,1,4.334-8.207,10.868,10.868,0,0,1,5.994-1.618c3.6,0,7.93,1.352,12.523,3.907,12.786,7.114,14.606,16.629,14.678,17.03l.179-.031h0l-.156.117a2.447,2.447,0,0,0,.07.264,2.493,2.493,0,0,0,.085.243c.026.061.056.119.1.2a2.56,2.56,0,0,0,.153.261c.025.036.052.07.1.135a2.6,2.6,0,0,0,.224.256l.1.09a2.573,2.573,0,0,0,.3.231l.09.053a2.59,2.59,0,0,0,.439.211,2.675,2.675,0,0,0,.506.131,2.623,2.623,0,0,0,.4.032l.12,0,.01-.183h0l.085.179a1.452,1.452,0,0,0,.209-.016.825.825,0,0,0,.105-.026l-.054-.174.166.142a2.544,2.544,0,0,0,.448-.155,2.578,2.578,0,0,0,.829-.6,2.671,2.671,0,0,0,.272-.344l.057-.1a2.691,2.691,0,0,0,.175-.341c.016-.039.029-.078.056-.16a3.683,3.683,0,0,0,.111-.395c.072-.4,1.886-9.928,14.68-17.045,4.594-2.557,8.925-3.907,12.523-3.907a10.857,10.857,0,0,1,5.994,1.618A9.507,9.507,0,0,1,198.1,245.7c-.531,6.374-5.781,10.747-16.051,13.369a2.628,2.628,0,1,0,1.3,5.093c12.534-3.2,19.259-9.264,19.989-18.025A14.63,14.63,0,0,0,196.62,233.075Z" transform="translate(-112.585 -230.583)" fill="#1f1f1f"/>
  <path id="Path_68" data-name="Path 68" d="M140.933,302.57a2.629,2.629,0,0,0-1.619-4.7,2.6,2.6,0,0,0-1.615.557c-15.86,12.373-16.827,34.868-16.86,35.819a2.631,2.631,0,0,0,2.532,2.72l.1,0a2.617,2.617,0,0,0,2.625-2.534C126.1,334.224,127.033,313.413,140.933,302.57Z" transform="translate(-116.155 -259.694)" fill="#1f1f1f"/>
</svg>
