<svg id="Group_633" data-name="Group 633" xmlns="http://www.w3.org/2000/svg" width="34.24" height="29.141" viewBox="0 0 34.24 29.141">
  <path id="Path_63" data-name="Path 63" d="M187.027,318.771c0-1.619-1.355-1.619-2.084-1.619s-2.084,0-2.084,1.619,1.356,1.619,2.084,1.619S187.027,320.39,187.027,318.771Z" transform="translate(-167.823 -298.63)" fill="#fff"/>
  <path id="Path_64" data-name="Path 64" d="M158.27,317.405a1.683,1.683,0,1,0-1.683-1.683A1.685,1.685,0,0,0,158.27,317.405Z" transform="translate(-147.172 -296.183)" fill="#fff"/>
  <path id="Path_65" data-name="Path 65" d="M216.247,315.722a1.683,1.683,0,1,0-1.683,1.683A1.685,1.685,0,0,0,216.247,315.722Z" transform="translate(-191.421 -296.183)" fill="#fff"/>
  <path id="Path_66" data-name="Path 66" d="M166.912,337.545a.988.988,0,0,0-1.306.5,3.627,3.627,0,0,1-3.427,1.767,4.066,4.066,0,0,1-3.218-1.864.473.473,0,0,0-.033-.045c-.012-.018-.025-.034-.038-.051a.981.981,0,0,0-.094-.105l-.031-.028a.953.953,0,0,0-.126-.1l-.031-.018a.934.934,0,0,0-.147-.07l-.037-.013a.983.983,0,0,0-.148-.037l-.04-.006a1.063,1.063,0,0,0-.139-.008l-.049,0a.989.989,0,0,0-.152.022l-.037.009a1.031,1.031,0,0,0-.138.048l-.072.034a.373.373,0,0,0-.047.023.453.453,0,0,0-.045.033c-.019.012-.036.026-.057.042a.98.98,0,0,0-.092.081c-.016.016-.031.033-.05.055a1.03,1.03,0,0,0-.072.094l.057.038-.079-.009a4.076,4.076,0,0,1-3.221,1.869,3.64,3.64,0,0,1-3.426-1.765,1,1,0,0,0-.9-.58.991.991,0,0,0-.9,1.394,5.557,5.557,0,0,0,5.234,2.933,5.7,5.7,0,0,0,4.068-1.777,5.7,5.7,0,0,0,4.068,1.777,5.555,5.555,0,0,0,5.234-2.933.992.992,0,0,0,.021-.76A.98.98,0,0,0,166.912,337.545Z" transform="translate(-140.992 -314.591)" fill="#fff"/>
  <path id="Path_67" data-name="Path 67" d="M144.276,231.523a6.062,6.062,0,0,0-3.346-.939,11.936,11.936,0,0,0-5.676,1.736,13.936,13.936,0,0,0-5.549,5.311,13.936,13.936,0,0,0-5.549-5.311,11.937,11.937,0,0,0-5.676-1.736,6.06,6.06,0,0,0-3.346.94,5.517,5.517,0,0,0-2.535,4.925c.425,5.1,6.177,7.73,17.1,7.816a12,12,0,0,1,11.454,7.162,20.587,20.587,0,0,1,1.927,7.342.987.987,0,0,0,.99.955h.036a.991.991,0,0,0,.955-1.026,22.3,22.3,0,0,0-2.1-8.085,14.037,14.037,0,0,0-13.247-8.33c-6.682-.053-14.733-1.137-15.138-6a3.586,3.586,0,0,1,1.634-3.095,4.1,4.1,0,0,1,2.26-.61,10.148,10.148,0,0,1,4.723,1.474c4.822,2.683,5.508,6.271,5.535,6.422l.067-.012h0l-.059.044a.919.919,0,0,0,.027.1.943.943,0,0,0,.032.092c.01.023.021.045.037.074a.984.984,0,0,0,.058.1c.009.013.019.026.039.051a.977.977,0,0,0,.085.1l.038.034a.973.973,0,0,0,.112.087l.034.02a.974.974,0,0,0,.165.08,1.016,1.016,0,0,0,.191.049.989.989,0,0,0,.152.012l.045,0,0-.069h0l.032.067a.546.546,0,0,0,.079-.006.3.3,0,0,0,.04-.01l-.02-.066.063.054a.966.966,0,0,0,.33-.151.981.981,0,0,0,.151-.133,1.007,1.007,0,0,0,.1-.13l.022-.037a1.014,1.014,0,0,0,.066-.129c.006-.015.011-.029.021-.06a1.381,1.381,0,0,0,.042-.149c.027-.152.711-3.744,5.536-6.428a10.149,10.149,0,0,1,4.723-1.474,4.1,4.1,0,0,1,2.261.61,3.585,3.585,0,0,1,1.634,3.095c-.2,2.4-2.18,4.053-6.053,5.042a.991.991,0,1,0,.49,1.921c4.727-1.207,7.263-3.494,7.538-6.8A5.517,5.517,0,0,0,144.276,231.523Z" transform="translate(-112.585 -230.583)" fill="#fff"/>
  <path id="Path_68" data-name="Path 68" d="M128.415,299.642a.991.991,0,0,0-.611-1.773.981.981,0,0,0-.609.21c-5.981,4.666-6.346,13.149-6.358,13.508a.992.992,0,0,0,.955,1.026h.036a.987.987,0,0,0,.99-.956C122.821,311.579,123.174,303.731,128.415,299.642Z" transform="translate(-119.071 -283.472)" fill="#fff"/>
</svg>
