<svg xmlns="http://www.w3.org/2000/svg" width="141.367" height="109" viewBox="0 0 141.367 109">
  <g id="Group_52" data-name="Group 52" transform="translate(-130.317 -368)">
    <text id="スマホで_" data-name="スマホで!" transform="translate(200.5 390)" fill="#1f1f1f" font-size="20" font-family="Mplus1p-Black, 'Mplus 1p'" font-weight="800"><tspan x="-40.402" y="0">スマホ</tspan><tspan y="0" font-size="14">で!</tspan></text>
    <g id="Group_48" data-name="Group 48" transform="translate(40.5 313)">
      <path id="Path_36" data-name="Path 36" d="M163,152H139a2,2,0,0,1-2-2V122a2,2,0,0,1,2-2h42a2,2,0,0,1,2,2v8" fill="none" stroke="#1f1f1f" stroke-linecap="round" stroke-linejoin="round" stroke-width="4"/>
      <line id="Line_38" data-name="Line 38" x2="11" transform="translate(152 160)" fill="none" stroke="#1f1f1f" stroke-linecap="round" stroke-linejoin="round" stroke-width="4"/>
      <line id="Line_39" data-name="Line 39" y1="8" x2="2" transform="translate(156 152)" fill="none" stroke="#1f1f1f" stroke-linecap="round" stroke-linejoin="round" stroke-width="4"/>
      <line id="Line_40" data-name="Line 40" x2="26" transform="translate(137 146)" fill="none" stroke="#1f1f1f" stroke-linecap="round" stroke-linejoin="round" stroke-width="4"/>
      <g id="Rectangle_85" data-name="Rectangle 85" transform="translate(167 134)" fill="none" stroke="#1f1f1f" stroke-linecap="round" stroke-linejoin="round" stroke-width="4">
        <rect width="16" height="26" rx="2" stroke="none"/>
        <rect x="-2" y="-2" width="20" height="30" rx="4" fill="none"/>
      </g>
      <line id="Line_41" data-name="Line 41" x2="2" transform="translate(174 156)" fill="none" stroke="#1f1f1f" stroke-linecap="round" stroke-linejoin="round" stroke-width="4"/>
    </g>
    <text id="PCで_" data-name="PCで!" transform="translate(200.5 416)" fill="#1f1f1f" font-size="20" font-family="Mplus1p-Black, 'Mplus 1p'" font-weight="800"><tspan x="-24.072" y="0">PC</tspan><tspan y="0" font-size="14">で!</tspan></text>
    <line id="Line_42" data-name="Line 42" x2="22" y2="44" transform="translate(133 374.5)" fill="none" stroke="#1f1f1f" stroke-linecap="round" stroke-width="4"/>
    <line id="Line_43" data-name="Line 43" x1="22" y2="44" transform="translate(247 374.5)" fill="none" stroke="#1f1f1f" stroke-linecap="round" stroke-width="4"/>
  </g>
</svg>
