<svg xmlns="http://www.w3.org/2000/svg" width="173.308" height="39" viewBox="0 0 173.308 39">
  <g id="Group_630" data-name="Group 630" transform="translate(-112.585 -228.246)">
    <g id="Group_69" data-name="Group 69" transform="translate(167.327 244.809)">
      <path id="Path_45" data-name="Path 45" d="M319.494,305.576l-1-.616a.792.792,0,0,0-1.015.175c-.143.177-.358.416-.642.708a3.424,3.424,0,0,1-1.087.679,4.083,4.083,0,0,1-5.319-2.179,4.307,4.307,0,0,1-.318-1.716v-8.513a4.3,4.3,0,0,1,.318-1.716,4.064,4.064,0,0,1,5.318-2.18,3.432,3.432,0,0,1,1.087.679c.284.293.5.532.642.709a.793.793,0,0,0,1.014.175l1-.616a.776.776,0,0,0,.225-1.113,9.829,9.829,0,0,0-.957-1.1,5.965,5.965,0,0,0-1.939-1.243,6.959,6.959,0,0,0-5.277,0,6.792,6.792,0,0,0-3.624,3.624,7.057,7.057,0,0,0-.532,2.785v8.513a7.057,7.057,0,0,0,.532,2.785,6.788,6.788,0,0,0,3.624,3.625,6.813,6.813,0,0,0,5.277,0,5.963,5.963,0,0,0,1.939-1.244,9.913,9.913,0,0,0,.956-1.1.777.777,0,0,0-.224-1.113Z" transform="translate(-307.389 -287.184)" fill="#1f1f1f"/>
      <path id="Path_46" data-name="Path 46" d="M369.184,288.257a.775.775,0,0,0-.755-.593h-1.761a.775.775,0,0,0-.755.593L360.894,308.8a.777.777,0,0,0,.755.962h1.174a.776.776,0,0,0,.755-.591l1.733-7.041h4.477l1.733,7.041a.776.776,0,0,0,.754.592h1.174a.777.777,0,0,0,.755-.962Zm-.071,11.149h-3.129l1.565-6.421Z" transform="translate(-345.842 -287.529)" fill="#1f1f1f"/>
      <path id="Path_47" data-name="Path 47" d="M429.921,297.422a4,4,0,0,0,1.308-1.287,5.2,5.2,0,0,0,.771-2.7,5.846,5.846,0,0,0-.446-2.334,5.686,5.686,0,0,0-2.988-2.987,5.475,5.475,0,0,0-2.187-.445H421.4a.777.777,0,0,0-.777.777v20.548a.778.778,0,0,0,.777.777h4.982a6.684,6.684,0,0,0,2.638-.532,6.789,6.789,0,0,0,3.624-3.624,7.064,7.064,0,0,0,.532-2.785,6.323,6.323,0,0,0-1.132-3.608A5.612,5.612,0,0,0,429.921,297.422Zm-5.068-.469v1.174a.778.778,0,0,0,.777.777h.749a3.941,3.941,0,0,1,1.57.317,4.13,4.13,0,0,1,2.179,2.18,3.584,3.584,0,0,1,.317,1.423,4.311,4.311,0,0,1-.317,1.716,4.128,4.128,0,0,1-2.18,2.179,3.914,3.914,0,0,1-1.569.318h-3.031V290.392h3.031a2.709,2.709,0,0,1,1.108.227,3.023,3.023,0,0,1,1.558,1.557,3.109,3.109,0,0,1,.226,1.255,2.387,2.387,0,0,1-.226.961,3.032,3.032,0,0,1-1.558,1.558,2.7,2.7,0,0,1-1.108.227h-.749A.778.778,0,0,0,424.854,296.954Z" transform="translate(-388.801 -287.529)" fill="#1f1f1f"/>
      <path id="Path_48" data-name="Path 48" d="M482.7,288.257a.776.776,0,0,0-.755-.593h-1.761a.775.775,0,0,0-.755.593L474.407,308.8a.777.777,0,0,0,.755.962h1.174a.776.776,0,0,0,.754-.591l1.733-7.041H483.3l1.733,7.041a.775.775,0,0,0,.755.592h1.174a.778.778,0,0,0,.755-.962Zm-.071,11.149H479.5l1.565-6.421Z" transform="translate(-427.457 -287.529)" fill="#1f1f1f"/>
      <path id="Path_49" data-name="Path 49" d="M573.619,307.038H565.59v-18.6a.778.778,0,0,0-.777-.777h-1.173a.777.777,0,0,0-.777.777v20.548a.778.778,0,0,0,.777.777h9.98a.778.778,0,0,0,.777-.777v-1.174A.777.777,0,0,0,573.619,307.038Z" transform="translate(-491.07 -287.529)" fill="#1f1f1f"/>
      <rect id="Rectangle_114" data-name="Rectangle 114" width="2.728" height="16.231" rx="1.364" transform="translate(86.461 6.006)" fill="#1f1f1f"/>
      <path id="Path_50" data-name="Path 50" d="M646.295,308.853a.784.784,0,0,0-.612-.3h-1.232a.774.774,0,0,0-.755.593l-2.474,10.121-2.474-10.121a.775.775,0,0,0-.755-.593H636.76a.785.785,0,0,0-.612.3.774.774,0,0,0-.143.664l3.581,14.677a.774.774,0,0,0,.754.593H642.1a.775.775,0,0,0,.755-.593l3.582-14.677A.774.774,0,0,0,646.295,308.853Z" transform="translate(-543.643 -302.55)" fill="#1f1f1f"/>
    </g>
    <path id="Path_51" data-name="Path 51" d="M613.292,278.331a2.065,2.065,0,0,0-2.852,0l-.43.43h0l-.43-.43a2.065,2.065,0,0,0-2.852,0,2.019,2.019,0,0,0,0,2.852l2.958,2.958h0a.459.459,0,0,0,.646,0l2.958-2.958A2.02,2.02,0,0,0,613.292,278.331Z" transform="translate(-354.858 -35.6)" fill="#ff5aa9"/>
    <g id="Group_76" data-name="Group 76" transform="translate(168.416 228.246)">
      <path id="Path_52" data-name="Path 52" d="M319.279,233.789a.417.417,0,0,0,.415-.416v-.819a.417.417,0,0,0-.415-.415H316.3v-.868a.417.417,0,0,0-.416-.415h-.818a.417.417,0,0,0-.416.415v.868h-2.976a.417.417,0,0,0-.416.415v.819a.417.417,0,0,0,.416.416h2.976v1.191h-2.976a.417.417,0,0,0-.416.416v.819a.417.417,0,0,0,.416.416h2.976v2.243a.417.417,0,0,0,.416.415h.818a.417.417,0,0,0,.416-.415V236.63h2.976a.417.417,0,0,0,.415-.416V235.4a.417.417,0,0,0-.415-.416H316.3v-1.191Z" transform="translate(-311.262 -230.123)" fill="#1f1f1f"/>
      <path id="Path_53" data-name="Path 53" d="M361.689,237.9a2.4,2.4,0,0,0-2.464-2.262h-1.742v-.776a.417.417,0,0,0-.415-.416h-.819a.417.417,0,0,0-.416.416v.776h-.776a.417.417,0,0,0-.416.415v.819a.417.417,0,0,0,.416.416h.776v4.167a.417.417,0,0,0,.416.415h.819a.417.417,0,0,0,.415-.415v-4.167h1.732a1.133,1.133,0,0,1,.4.077.681.681,0,0,1,.425.588.129.129,0,0,1,0,.014,1.243,1.243,0,0,1,0,.3v.008a.682.682,0,0,1-.424.591,1.108,1.108,0,0,1-.391.076h-.5a.417.417,0,0,0-.416.416v.819a.417.417,0,0,0,.416.416h.5a2.4,2.4,0,0,0,2.464-2.262c0-.07.011-.139.011-.212S361.694,237.966,361.689,237.9Z" transform="translate(-342.452 -232.701)" fill="#1f1f1f"/>
      <g id="Group_70" data-name="Group 70" transform="translate(35.472 1.283)">
        <path id="Rectangle_115" data-name="Rectangle 115" d="M.825,0H6.691a.825.825,0,0,1,.825.825v0a.825.825,0,0,1-.825.825H.824A.824.824,0,0,1,0,.826v0A.825.825,0,0,1,.825,0Z" transform="translate(0.367)" fill="#1f1f1f"/>
        <path id="Path_54" data-name="Path 54" d="M445.414,243.25H437.9a.417.417,0,0,0-.416.416v.818a.417.417,0,0,0,.416.416h6.275v.41c0,.177-.011.441-.026.657a.724.724,0,0,1-.8.583h-3.618a.417.417,0,0,0-.416.415v.819a.417.417,0,0,0,.416.415h3.618a2.4,2.4,0,0,0,2.475-2.475v-2.058A.417.417,0,0,0,445.414,243.25Z" transform="translate(-437.489 -240.317)" fill="#1f1f1f"/>
      </g>
      <path id="Path_55" data-name="Path 55" d="M523.694,236.725h-7.509a.417.417,0,0,0-.416.416v.818a.417.417,0,0,0,.416.416h6.275v2.233a5.335,5.335,0,0,1-.077.815l0,.01a.723.723,0,0,1-.744.425h-3.8a.416.416,0,0,0-.415.415v.819a.417.417,0,0,0,.415.415h3.8a2.4,2.4,0,0,0,2.475-2.475v-3.892A.417.417,0,0,0,523.694,236.725Z" transform="translate(-458.299 -234.342)" fill="#1f1f1f"/>
      <g id="Group_73" data-name="Group 73" transform="translate(22.293 0.917)">
        <g id="Group_71" data-name="Group 71">
          <path id="Path_56" data-name="Path 56" d="M393.772,231.915a.328.328,0,0,0-.335-.407h-.851a.53.53,0,0,0-.5.407l-1.487,7.434a.328.328,0,0,0,.334.407h.851a.529.529,0,0,0,.5-.407Z" transform="translate(-390.594 -231.508)" fill="#1f1f1f"/>
        </g>
        <g id="Group_72" data-name="Group 72" transform="translate(5.206)">
          <path id="Path_57" data-name="Path 57" d="M410.614,239.349a.529.529,0,0,0,.5.407h.851a.328.328,0,0,0,.334-.407l-1.487-7.434a.53.53,0,0,0-.5-.407h-.851a.328.328,0,0,0-.334.407Z" transform="translate(-409.119 -231.508)" fill="#1f1f1f"/>
        </g>
      </g>
      <path id="Path_58" data-name="Path 58" d="M486.253,230.2l-7.043,4.482a.847.847,0,0,0-.351.639v1.124c0,.228.158.315.351.193l3.086-1.964v3.687a.417.417,0,0,0,.415.415h.818a.417.417,0,0,0,.416-.415v-4.737l2.307-1.468a.848.848,0,0,0,.351-.639v-1.124C486.6,230.166,486.446,230.08,486.253,230.2Z" transform="translate(-431.763 -229.613)" fill="#1f1f1f"/>
      <g id="Group_74" data-name="Group 74" transform="translate(30.339 0.917)">
        <circle id="Ellipse_3" data-name="Ellipse 3" cx="0.871" cy="0.871" r="0.871" fill="#1f1f1f"/>
        <path id="Path_59" data-name="Path 59" d="M420.966,240.206a.871.871,0,1,1-.871-.871A.871.871,0,0,1,420.966,240.206Z" transform="translate(-419.224 -237.135)" fill="#1f1f1f"/>
      </g>
      <g id="Group_75" data-name="Group 75" transform="translate(61.869 0)">
        <path id="Path_60" data-name="Path 60" d="M532.3,228.246a.871.871,0,1,1-.87.871A.871.871,0,0,1,532.3,228.246Z" transform="translate(-531.426 -228.246)" fill="#1f1f1f"/>
        <path id="Path_61" data-name="Path 61" d="M540.123,228.246a.871.871,0,1,1-.87.871A.871.871,0,0,1,540.123,228.246Z" transform="translate(-537.053 -228.246)" fill="#1f1f1f"/>
      </g>
    </g>
    <path id="Path_62" data-name="Path 62" d="M695.524,319.685a.775.775,0,0,0-.284-.4.706.706,0,0,0-.11-.071l-1.046-.531a.65.65,0,0,0-.092-.026.784.784,0,0,0-.9.286c-.1.153-.261.36-.451.6a5.889,5.889,0,0,1-5.095,2.334v-.014a3.635,3.635,0,0,1-.407-.029h0a2.227,2.227,0,0,1-1.4-.619,2.658,2.658,0,0,1-.642-1.951v-.984h2.451a5.26,5.26,0,0,0,2-.381,5.362,5.362,0,0,0,1.63-1.03,5,5,0,0,0,1.129-1.546,4.508,4.508,0,0,0,.425-1.931,5.461,5.461,0,0,0-.413-2.135,5.239,5.239,0,0,0-1.121-1.687,5.178,5.178,0,0,0-1.639-1.1,5.469,5.469,0,0,0-4.054,0,4.981,4.981,0,0,0-1.65,1.113,5.158,5.158,0,0,0-1.089,1.69,5.665,5.665,0,0,0-.394,2.126v5.871a5.817,5.817,0,0,0,.393,2.164,4.807,4.807,0,0,0,2.752,2.785,5.219,5.219,0,0,0,1.106.3l0,.016a6.855,6.855,0,0,0,1.3.116,8.683,8.683,0,0,0,7.2-3.825q.2-.278.342-.512c.011-.019.018-.04.028-.06A.773.773,0,0,0,695.524,319.685Zm-10.433-6.448a2.412,2.412,0,0,1,.623-1.843,2.529,2.529,0,0,1,1.828-.609,2.561,2.561,0,0,1,1.8.622,2.329,2.329,0,0,1,.654,1.831,2.174,2.174,0,0,1-.674,1.643,2.43,2.43,0,0,1-1.779.662H685.09Z" transform="translate(-409.661 -57.389)" fill="#1f1f1f"/>
    <g id="Group_77" data-name="Group 77" transform="translate(112.585 228.903)">
      <path id="Path_63" data-name="Path 63" d="M188.333,319.279c0-2.127-1.78-2.127-2.737-2.127s-2.738,0-2.738,2.127,1.781,2.126,2.738,2.126S188.333,321.405,188.333,319.279Z" transform="translate(-163.111 -292.825)" fill="#1f1f1f"/>
      <path id="Path_64" data-name="Path 64" d="M158.8,318.46a2.21,2.21,0,1,0-2.211-2.21A2.213,2.213,0,0,0,158.8,318.46Z" transform="translate(-144.222 -290.587)" fill="#1f1f1f"/>
      <path id="Path_65" data-name="Path 65" d="M217.3,316.25a2.211,2.211,0,1,0-2.21,2.21A2.213,2.213,0,0,0,217.3,316.25Z" transform="translate(-184.696 -290.587)" fill="#1f1f1f"/>
      <path id="Path_66" data-name="Path 66" d="M172.612,337.572a1.3,1.3,0,0,0-1.715.652c-.045.1-1.136,2.321-4.5,2.321a5.341,5.341,0,0,1-4.226-2.448.61.61,0,0,0-.044-.059c-.016-.023-.033-.045-.05-.067a1.274,1.274,0,0,0-.123-.138l-.041-.036a1.239,1.239,0,0,0-.166-.125l-.04-.024a1.253,1.253,0,0,0-.193-.092l-.048-.017a1.292,1.292,0,0,0-.2-.048l-.052-.008a1.369,1.369,0,0,0-.182-.01l-.065,0a1.3,1.3,0,0,0-.2.029l-.049.012a1.319,1.319,0,0,0-.181.063l-.095.044a.516.516,0,0,0-.062.03.616.616,0,0,0-.058.043c-.024.016-.047.034-.074.055a1.3,1.3,0,0,0-.121.107c-.021.02-.04.043-.066.073a1.332,1.332,0,0,0-.094.124l.075.049-.1-.012a5.353,5.353,0,0,1-4.231,2.454,4.781,4.781,0,0,1-4.5-2.318,1.306,1.306,0,0,0-1.185-.762,1.3,1.3,0,0,0-1.189,1.831,7.3,7.3,0,0,0,6.874,3.853,7.491,7.491,0,0,0,5.343-2.334,7.491,7.491,0,0,0,5.342,2.334,7.3,7.3,0,0,0,6.874-3.853,1.3,1.3,0,0,0,.027-1A1.287,1.287,0,0,0,172.612,337.572Z" transform="translate(-138.568 -307.425)" fill="#1f1f1f"/>
      <path id="Path_67" data-name="Path 67" d="M154.208,231.817a7.961,7.961,0,0,0-4.395-1.234,15.675,15.675,0,0,0-7.455,2.28,18.3,18.3,0,0,0-7.288,6.976,18.3,18.3,0,0,0-7.288-6.976,15.676,15.676,0,0,0-7.455-2.281,7.959,7.959,0,0,0-4.395,1.234,7.246,7.246,0,0,0-3.329,6.468c.558,6.7,8.113,10.152,22.456,10.266,6.963.055,12.025,3.22,15.044,9.407a27.04,27.04,0,0,1,2.531,9.644,1.3,1.3,0,0,0,1.3,1.255h.047a1.3,1.3,0,0,0,1.254-1.347,29.284,29.284,0,0,0-2.757-10.619c-2.394-4.947-7.356-10.861-17.4-10.941-8.777-.07-19.35-1.494-19.882-7.879A4.71,4.71,0,0,1,117.345,234a5.383,5.383,0,0,1,2.969-.8,13.328,13.328,0,0,1,6.2,1.935c6.333,3.523,7.234,8.236,7.27,8.435l.089-.015h0l-.077.058a1.74,1.74,0,0,0,.077.251c.013.03.028.059.048.1a1.279,1.279,0,0,0,.076.129c.012.018.026.035.051.067a1.287,1.287,0,0,0,.111.127l.051.044a1.276,1.276,0,0,0,.147.114l.045.026a1.281,1.281,0,0,0,.217.1,1.32,1.32,0,0,0,.251.065,1.3,1.3,0,0,0,.2.016l.06,0,.005-.091h0l.042.089a.717.717,0,0,0,.1-.008.413.413,0,0,0,.052-.013l-.027-.086.082.071a1.266,1.266,0,0,0,.434-.2,1.291,1.291,0,0,0,.2-.175,1.324,1.324,0,0,0,.135-.171l.028-.048a1.335,1.335,0,0,0,.087-.169c.008-.019.014-.039.028-.079a1.822,1.822,0,0,0,.055-.2c.035-.2.934-4.917,7.271-8.443a13.328,13.328,0,0,1,6.2-1.935,5.378,5.378,0,0,1,2.969.8,4.709,4.709,0,0,1,2.146,4.065c-.263,3.157-2.864,5.323-7.95,6.622a1.3,1.3,0,1,0,.644,2.523c6.208-1.585,9.539-4.589,9.9-8.928A7.246,7.246,0,0,0,154.208,231.817Z" transform="translate(-112.585 -230.583)" fill="#1f1f1f"/>
      <path id="Path_68" data-name="Path 68" d="M130.79,300.2a1.3,1.3,0,0,0-.8-2.328,1.29,1.29,0,0,0-.8.276c-7.855,6.128-8.335,17.27-8.351,17.741a1.3,1.3,0,0,0,1.254,1.347h.048a1.3,1.3,0,0,0,1.3-1.255C123.443,315.876,123.906,305.568,130.79,300.2Z" transform="translate(-118.518 -278.961)" fill="#1f1f1f"/>
    </g>
  </g>
</svg>
