<svg xmlns="http://www.w3.org/2000/svg" width="361.309" height="81.307" viewBox="0 0 361.309 81.307">
  <g id="Group_632" data-name="Group 632" transform="translate(-112.585 -228.246)">
    <g id="Group_69" data-name="Group 69" transform="translate(226.712 262.775)">
      <path id="Path_45" data-name="Path 45" d="M332.625,325.528l-2.079-1.285a1.651,1.651,0,0,0-2.116.364c-.3.37-.747.867-1.338,1.477a7.137,7.137,0,0,1-2.265,1.416,8.512,8.512,0,0,1-11.088-4.544,8.979,8.979,0,0,1-.663-3.578V301.63a8.97,8.97,0,0,1,.663-3.578,8.473,8.473,0,0,1,11.087-4.545,7.154,7.154,0,0,1,2.265,1.416c.592.612,1.043,1.109,1.339,1.478a1.652,1.652,0,0,0,2.114.365l2.08-1.284a1.618,1.618,0,0,0,.468-2.32,20.493,20.493,0,0,0-1.995-2.3,12.435,12.435,0,0,0-4.042-2.592,14.508,14.508,0,0,0-11,0,14.16,14.16,0,0,0-7.555,7.556,14.713,14.713,0,0,0-1.109,5.807v17.748a14.713,14.713,0,0,0,1.109,5.806,14.152,14.152,0,0,0,7.556,7.556,14.2,14.2,0,0,0,11,0,12.431,12.431,0,0,0,4.043-2.593,20.661,20.661,0,0,0,1.994-2.3,1.619,1.619,0,0,0-.467-2.32Z" transform="translate(-307.389 -287.184)" fill="#1f1f1f"/>
      <path id="Path_46" data-name="Path 46" d="M378.2,288.9a1.615,1.615,0,0,0-1.573-1.235h-3.672a1.615,1.615,0,0,0-1.573,1.235l-10.464,42.838a1.62,1.62,0,0,0,1.573,2h2.448a1.618,1.618,0,0,0,1.573-1.233l3.613-14.68h9.333l3.613,14.679a1.617,1.617,0,0,0,1.573,1.233h2.448a1.621,1.621,0,0,0,1.574-2Zm-.148,23.243H371.53l3.262-13.385Z" transform="translate(-329.538 -287.383)" fill="#1f1f1f"/>
      <path id="Path_47" data-name="Path 47" d="M440.01,308.008a8.341,8.341,0,0,0,2.726-2.683,10.839,10.839,0,0,0,1.608-5.638,12.189,12.189,0,0,0-.93-4.867,11.855,11.855,0,0,0-6.228-6.228,11.416,11.416,0,0,0-4.559-.928H422.241a1.621,1.621,0,0,0-1.62,1.619v42.839a1.622,1.622,0,0,0,1.62,1.62h10.387a13.936,13.936,0,0,0,5.5-1.109,14.154,14.154,0,0,0,7.555-7.556,14.726,14.726,0,0,0,1.11-5.806,13.181,13.181,0,0,0-2.361-7.521A11.7,11.7,0,0,0,440.01,308.008Zm-10.565-.977v2.448a1.622,1.622,0,0,0,1.62,1.62h1.563a8.216,8.216,0,0,1,3.273.661,8.611,8.611,0,0,1,4.543,4.544,7.473,7.473,0,0,1,.661,2.967,8.989,8.989,0,0,1-.661,3.578,8.607,8.607,0,0,1-4.544,4.543,8.16,8.16,0,0,1-3.271.663h-6.318v-34.7h6.318a5.647,5.647,0,0,1,2.31.473,6.3,6.3,0,0,1,3.247,3.246,6.481,6.481,0,0,1,.472,2.617,4.977,4.977,0,0,1-.472,2,6.32,6.32,0,0,1-3.248,3.248,5.636,5.636,0,0,1-2.31.472h-1.562A1.622,1.622,0,0,0,429.445,307.031Z" transform="translate(-354.284 -287.383)" fill="#1f1f1f"/>
      <path id="Path_48" data-name="Path 48" d="M491.716,288.9a1.617,1.617,0,0,0-1.575-1.235h-3.672A1.615,1.615,0,0,0,484.9,288.9l-10.464,42.838a1.621,1.621,0,0,0,1.573,2h2.447a1.617,1.617,0,0,0,1.573-1.233l3.613-14.68h9.333l3.614,14.679a1.616,1.616,0,0,0,1.573,1.233h2.448a1.621,1.621,0,0,0,1.573-2Zm-.147,23.243h-6.525l3.262-13.385Z" transform="translate(-376.549 -287.383)" fill="#1f1f1f"/>
      <path id="Path_49" data-name="Path 49" d="M585.289,328.055h-16.74V289.283a1.622,1.622,0,0,0-1.621-1.619h-2.446a1.621,1.621,0,0,0-1.62,1.619v42.839a1.622,1.622,0,0,0,1.62,1.62h20.807a1.622,1.622,0,0,0,1.62-1.62v-2.448A1.621,1.621,0,0,0,585.289,328.055Z" transform="translate(-413.192 -287.383)" fill="#1f1f1f"/>
      <rect id="Rectangle_114" data-name="Rectangle 114" width="5.686" height="33.838" rx="2.765" transform="translate(180.252 12.521)" fill="#1f1f1f"/>
      <path id="Path_50" data-name="Path 50" d="M657.481,309.175a1.634,1.634,0,0,0-1.275-.619h-2.569a1.614,1.614,0,0,0-1.574,1.236l-5.159,21.1-5.158-21.1a1.616,1.616,0,0,0-1.574-1.236H637.6a1.636,1.636,0,0,0-1.276.619,1.614,1.614,0,0,0-.3,1.385l7.467,30.6a1.614,1.614,0,0,0,1.572,1.237h3.672a1.616,1.616,0,0,0,1.574-1.237l7.468-30.6A1.614,1.614,0,0,0,657.481,309.175Z" transform="translate(-443.474 -296.035)" fill="#1f1f1f"/>
    </g>
    <path id="Path_51" data-name="Path 51" d="M621.051,278.951a4.305,4.305,0,0,0-5.945,0l-.9.9h0l-.9-.9a4.3,4.3,0,0,0-5.945,0,4.208,4.208,0,0,0,0,5.945l6.167,6.168,0,0a.956.956,0,0,0,1.346,0l6.168-6.168A4.211,4.211,0,0,0,621.051,278.951Z" transform="translate(-204.403 -20.506)" fill="#ff5aa9"/>
    <g id="Group_76" data-name="Group 76" transform="translate(228.981 228.246)">
      <path id="Path_52" data-name="Path 52" d="M327.976,236.971a.87.87,0,0,0,.866-.867V234.4a.869.869,0,0,0-.866-.866h-6.2v-1.81a.869.869,0,0,0-.867-.865H319.2a.869.869,0,0,0-.866.865v1.81h-6.2a.869.869,0,0,0-.867.866V236.1a.87.87,0,0,0,.867.867h6.2v2.483h-6.2a.87.87,0,0,0-.867.866v1.707a.869.869,0,0,0,.867.866h6.2v4.676a.869.869,0,0,0,.866.866h1.706a.869.869,0,0,0,.867-.866v-4.676h6.2a.869.869,0,0,0,.866-.866V240.32a.87.87,0,0,0-.866-.866h-6.2v-2.483Z" transform="translate(-311.262 -229.327)" fill="#1f1f1f"/>
      <path id="Path_53" data-name="Path 53" d="M369.333,241.643a5.01,5.01,0,0,0-5.136-4.716h-3.631v-1.618a.869.869,0,0,0-.866-.867h-1.706a.87.87,0,0,0-.867.867v1.618h-1.618a.869.869,0,0,0-.867.866V239.5a.869.869,0,0,0,.866.866h1.618v8.688a.869.869,0,0,0,.867.866H359.7a.869.869,0,0,0,.866-.866v-8.688h3.611a2.361,2.361,0,0,1,.833.16,1.419,1.419,0,0,1,.885,1.226.28.28,0,0,1,0,.029,2.589,2.589,0,0,1,0,.616l0,.016a1.422,1.422,0,0,1-.884,1.233,2.309,2.309,0,0,1-.815.159h-1.045a.869.869,0,0,0-.866.866v1.706a.869.869,0,0,0,.866.867H364.2a5.01,5.01,0,0,0,5.136-4.717c.01-.145.023-.289.023-.443S369.343,241.79,369.333,241.643Z" transform="translate(-329.228 -230.812)" fill="#1f1f1f"/>
      <g id="Group_70" data-name="Group 70" transform="translate(73.951 2.675)">
        <path id="Rectangle_115" data-name="Rectangle 115" d="M1.48,0H14.189a1.48,1.48,0,0,1,1.48,1.48V1.96a1.48,1.48,0,0,1-1.48,1.48H1.478A1.478,1.478,0,0,1,0,1.962V1.48A1.48,1.48,0,0,1,1.48,0Z" transform="translate(0.765)" fill="#1f1f1f"/>
        <path id="Path_54" data-name="Path 54" d="M454.011,243.25H438.355a.868.868,0,0,0-.866.867v1.7a.869.869,0,0,0,.866.867h13.083v.854c0,.37-.023.919-.054,1.37a1.51,1.51,0,0,1-1.665,1.216h-7.542a.869.869,0,0,0-.866.866V252.7a.869.869,0,0,0,.866.866h7.542a5.014,5.014,0,0,0,5.159-5.16v-4.291A.869.869,0,0,0,454.011,243.25Z" transform="translate(-437.489 -237.135)" fill="#1f1f1f"/>
      </g>
      <path id="Path_55" data-name="Path 55" d="M532.291,236.725H516.636a.87.87,0,0,0-.867.867V239.3a.869.869,0,0,0,.867.867h13.082v4.655a11.111,11.111,0,0,1-.16,1.7.227.227,0,0,1-.009.021,1.508,1.508,0,0,1-1.552.886h-7.923a.868.868,0,0,0-.866.866V250a.868.868,0,0,0,.866.866H528a5.014,5.014,0,0,0,5.16-5.16v-8.114A.87.87,0,0,0,532.291,236.725Z" transform="translate(-395.957 -231.758)" fill="#1f1f1f"/>
      <g id="Group_73" data-name="Group 73" transform="translate(46.477 1.911)">
        <g id="Group_71" data-name="Group 71">
          <path id="Path_56" data-name="Path 56" d="M397.219,232.357a.685.685,0,0,0-.7-.849h-1.775a1.106,1.106,0,0,0-1.037.849l-3.1,15.5a.684.684,0,0,0,.7.849h1.773a1.1,1.1,0,0,0,1.037-.849Z" transform="translate(-390.594 -231.508)" fill="#1f1f1f"/>
        </g>
        <g id="Group_72" data-name="Group 72" transform="translate(10.853)">
          <path id="Path_57" data-name="Path 57" d="M412.236,247.856a1.1,1.1,0,0,0,1.036.849h1.775a.684.684,0,0,0,.7-.849l-3.1-15.5a1.1,1.1,0,0,0-1.036-.849h-1.775a.684.684,0,0,0-.7.849Z" transform="translate(-409.119 -231.508)" fill="#1f1f1f"/>
        </g>
      </g>
      <path id="Path_58" data-name="Path 58" d="M494.274,230.263l-14.683,9.343a1.765,1.765,0,0,0-.731,1.332v2.344c0,.476.329.657.731.4l6.434-4.094v7.686a.869.869,0,0,0,.866.866H488.6a.869.869,0,0,0,.867-.866V237.4l4.81-3.06a1.768,1.768,0,0,0,.732-1.333v-2.343C495.005,230.187,494.675,230.007,494.274,230.263Z" transform="translate(-380.672 -229.033)" fill="#1f1f1f"/>
      <g id="Group_74" data-name="Group 74" transform="translate(63.25 1.911)">
        <circle id="Ellipse_3" data-name="Ellipse 3" cx="1.815" cy="1.815" r="1.815" fill="#1f1f1f"/>
        <path id="Path_59" data-name="Path 59" d="M422.855,241.151a1.815,1.815,0,1,1-1.816-1.816A1.815,1.815,0,0,1,422.855,241.151Z" transform="translate(-419.224 -234.749)" fill="#1f1f1f"/>
      </g>
      <g id="Group_75" data-name="Group 75" transform="translate(128.984 0)">
        <path id="Path_60" data-name="Path 60" d="M533.24,228.246a1.815,1.815,0,1,1-1.814,1.815A1.815,1.815,0,0,1,533.24,228.246Z" transform="translate(-531.426 -228.246)" fill="#1f1f1f"/>
        <path id="Path_61" data-name="Path 61" d="M541.067,228.246a1.815,1.815,0,1,1-1.815,1.815A1.815,1.815,0,0,1,541.067,228.246Z" transform="translate(-534.667 -228.246)" fill="#1f1f1f"/>
      </g>
    </g>
    <path id="Path_62" data-name="Path 62" d="M709.8,332.289a1.617,1.617,0,0,0-.591-.844,1.482,1.482,0,0,0-.23-.149L706.8,330.19a1.352,1.352,0,0,0-.192-.055,1.634,1.634,0,0,0-1.885.6c-.215.318-.545.751-.94,1.243a12.277,12.277,0,0,1-10.621,4.865v-.03a7.578,7.578,0,0,1-.848-.061l-.01,0v0a4.642,4.642,0,0,1-2.915-1.29,5.542,5.542,0,0,1-1.338-4.068v-2.05h5.11a10.966,10.966,0,0,0,4.161-.793,11.181,11.181,0,0,0,3.4-2.148,10.418,10.418,0,0,0,2.354-3.222,9.4,9.4,0,0,0,.886-4.025,11.385,11.385,0,0,0-.86-4.452,10.923,10.923,0,0,0-2.337-3.517,10.8,10.8,0,0,0-3.416-2.3,11.4,11.4,0,0,0-8.451,0,10.384,10.384,0,0,0-3.44,2.321,10.753,10.753,0,0,0-2.271,3.523,11.809,11.809,0,0,0-.822,4.431V331.39a12.128,12.128,0,0,0,.819,4.512,10.021,10.021,0,0,0,5.738,5.806,10.881,10.881,0,0,0,2.306.626l-.007.033a14.293,14.293,0,0,0,2.705.243,18.1,18.1,0,0,0,15-7.974q.421-.579.713-1.067c.023-.04.037-.084.057-.125A1.612,1.612,0,0,0,709.8,332.289ZM688.05,318.846a5.029,5.029,0,0,1,1.3-3.843,5.273,5.273,0,0,1,3.811-1.27,5.339,5.339,0,0,1,3.749,1.3,4.855,4.855,0,0,1,1.364,3.817,4.531,4.531,0,0,1-1.405,3.425,5.067,5.067,0,0,1-3.708,1.38h-5.11Z" transform="translate(-235.97 -33.057)" fill="#1f1f1f"/>
    <g id="Group_77" data-name="Group 77" transform="translate(112.585 229.615)">
      <path id="Path_63" data-name="Path 63" d="M194.272,321.586c0-4.434-3.711-4.434-5.706-4.434s-5.707,0-5.707,4.434,3.713,4.433,5.707,4.433S194.272,326.019,194.272,321.586Z" transform="translate(-141.688 -266.435)" fill="#1f1f1f"/>
      <path id="Path_64" data-name="Path 64" d="M161.2,323.256a4.608,4.608,0,1,0-4.609-4.608A4.613,4.613,0,0,0,161.2,323.256Z" transform="translate(-130.808 -265.146)" fill="#1f1f1f"/>
      <path id="Path_65" data-name="Path 65" d="M222.1,318.648a4.609,4.609,0,1,0-4.608,4.608A4.614,4.614,0,0,0,222.1,318.648Z" transform="translate(-154.122 -265.146)" fill="#1f1f1f"/>
      <path id="Path_66" data-name="Path 66" d="M198.526,337.7a2.705,2.705,0,0,0-3.575,1.36c-.093.2-2.369,4.839-9.384,4.839-5.6,0-8.683-4.9-8.811-5.1a1.278,1.278,0,0,0-.091-.123c-.033-.049-.069-.094-.1-.14a2.651,2.651,0,0,0-.256-.289l-.085-.076a2.583,2.583,0,0,0-.346-.261l-.084-.05a2.614,2.614,0,0,0-.4-.193l-.1-.036a2.7,2.7,0,0,0-.407-.1l-.108-.017a2.85,2.85,0,0,0-.38-.021l-.135,0a2.7,2.7,0,0,0-.418.06l-.1.025a2.756,2.756,0,0,0-.377.131l-.2.092a1.074,1.074,0,0,0-.129.063,1.279,1.279,0,0,0-.122.09c-.051.034-.1.071-.155.115a2.714,2.714,0,0,0-.252.223c-.044.043-.084.09-.137.152a2.783,2.783,0,0,0-.2.258l.157.1-.216-.025c-.129.209-3.222,5.117-8.821,5.117-6.993,0-9.289-4.639-9.381-4.833a2.723,2.723,0,0,0-2.471-1.588,2.714,2.714,0,0,0-2.478,3.817c.146.328,3.7,8.032,14.331,8.032a15.618,15.618,0,0,0,11.139-4.866,15.617,15.617,0,0,0,11.138,4.866c10.635,0,14.185-7.7,14.331-8.032a2.717,2.717,0,0,0,.056-2.082A2.684,2.684,0,0,0,198.526,337.7Z" transform="translate(-127.551 -274.845)" fill="#1f1f1f"/>
      <path id="Path_67" data-name="Path 67" d="M199.36,233.156a16.6,16.6,0,0,0-9.162-2.572c-4.644,0-9.872,1.6-15.542,4.754-8.439,4.7-12.908,10.443-15.194,14.543-2.287-4.1-6.754-9.848-15.194-14.543-5.67-3.155-10.9-4.755-15.542-4.755a16.592,16.592,0,0,0-9.162,2.573,15.107,15.107,0,0,0-6.941,13.485c1.164,13.964,16.915,21.165,46.816,21.4,14.517.115,25.069,6.713,31.364,19.612a56.372,56.372,0,0,1,5.276,20.1,2.7,2.7,0,0,0,2.71,2.616l.1,0a2.713,2.713,0,0,0,2.615-2.809,61.052,61.052,0,0,0-5.748-22.139c-4.991-10.314-15.336-22.644-36.272-22.81-18.3-.146-40.341-3.114-41.45-16.426a9.818,9.818,0,0,1,4.475-8.474,11.222,11.222,0,0,1,6.19-1.67c3.717,0,8.188,1.4,12.931,4.035,13.2,7.345,15.082,17.171,15.156,17.585l.185-.032h0l-.161.121a3.628,3.628,0,0,0,.161.524c.026.063.058.123.1.2a2.66,2.66,0,0,0,.158.27c.026.037.053.072.107.139a2.68,2.68,0,0,0,.231.265l.105.093a2.663,2.663,0,0,0,.307.238l.093.055a2.669,2.669,0,0,0,.453.218,2.751,2.751,0,0,0,.523.135,2.7,2.7,0,0,0,.415.033l.124,0,.011-.189h0l.088.185a1.508,1.508,0,0,0,.216-.016.868.868,0,0,0,.108-.027l-.056-.18.172.147a2.639,2.639,0,0,0,.9-.414,2.693,2.693,0,0,0,.414-.365,2.759,2.759,0,0,0,.281-.356l.059-.1a2.786,2.786,0,0,0,.181-.352c.016-.04.03-.081.057-.165a3.794,3.794,0,0,0,.114-.408c.074-.415,1.947-10.251,15.158-17.6,4.744-2.64,9.216-4.035,12.932-4.035a11.211,11.211,0,0,1,6.19,1.671,9.817,9.817,0,0,1,4.475,8.474c-.548,6.582-5.97,11.1-16.574,13.8a2.714,2.714,0,1,0,1.343,5.259c12.942-3.3,19.887-9.566,20.641-18.613A15.107,15.107,0,0,0,199.36,233.156Z" transform="translate(-112.585 -230.583)" fill="#1f1f1f"/>
      <path id="Path_68" data-name="Path 68" d="M141.588,302.723a2.714,2.714,0,0,0-1.672-4.854,2.689,2.689,0,0,0-1.667.575c-16.377,12.776-17.376,36.005-17.41,36.987a2.716,2.716,0,0,0,2.614,2.809l.1,0a2.7,2.7,0,0,0,2.71-2.617C126.27,335.41,127.235,313.92,141.588,302.723Z" transform="translate(-116.002 -258.449)" fill="#1f1f1f"/>
    </g>
  </g>
</svg>
